<?xml version="1.0" encoding="utf-8"?>
<!DOCTYPE svg PUBLIC "-//W3C//DTD SVG 1.1//EN" "http://www.w3.org/Graphics/SVG/1.1/DTD/svg11.dtd">
<svg version="1.1" baseProfile="full"
 xmlns="http://www.w3.org/2000/svg"
 xmlns:xlink="http://www.w3.org/1999/xlink"
 xmlns:ev="http://www.w3.org/2001/xml-events" 
  height="20px" 
  width="48px" 
>
<path fill="rgb( 195, 191, 205 )"
 d="M0,10.203 C0,10.203 0,9.22400000000016 0,9.22400000000016 C0,9.22400000000016 45.7349999999999,9.22400000000016 45.7349999999999,9.22400000000016 C45.7349999999999,9.22400000000016 45.7349999999999,10.203 45.7349999999999,10.203 C45.7349999999999,10.203 0,10.203 0,10.203 M47.4480000000001,10.6109999999999 C47.4480000000001,10.6109999999999 48,9.79599999999982 48,9.79599999999982 C48,9.79599999999982 33.086,0 33.086,0 C33.086,0 32.5340000000001,0.81500000000005 32.5340000000001,0.81500000000005 C32.5340000000001,0.81500000000005 47.4480000000001,10.6109999999999 47.4480000000001,10.6109999999999 M32.383,19.9989999999998 C32.383,19.9989999999998 31.816,19.172 31.816,19.172 C31.816,19.172 47.1569999999999,9.22400000000016 47.1569999999999,9.22400000000016 C47.1569999999999,9.22400000000016 47.7239999999999,10.0509999999999 47.7239999999999,10.0509999999999 C47.7239999999999,10.0509999999999 32.383,19.9989999999998 32.383,19.9989999999998  "/>
</svg>
