<?xml version="1.0" encoding="utf-8"?>
<!DOCTYPE svg PUBLIC "-//W3C//DTD SVG 1.1//EN" "http://www.w3.org/Graphics/SVG/1.1/DTD/svg11.dtd">
<svg version="1.1" baseProfile="full"
 xmlns="http://www.w3.org/2000/svg"
 xmlns:xlink="http://www.w3.org/1999/xlink"
 xmlns:ev="http://www.w3.org/2001/xml-events" 
  height="21px" 
  width="34px" 
>
<path fill="rgb( 232, 194, 154 )"
 d="M34,10.9989999999998 C34,10.9989999999998 34,9.9989999999998 34,9.9989999999998 C34,9.9989999999998 3,9.9989999999998 3,9.9989999999998 C3,9.9989999999998 3,10.9989999999998 3,10.9989999999998 C3,10.9989999999998 34,10.9989999999998 34,10.9989999999998 M1.27699999999999,11.415 C1.27699999999999,11.415 0.72199999999998,10.5830000000001 0.72199999999998,10.5830000000001 C0.72199999999998,10.5830000000001 15.722,0.58300000000008 15.722,0.58300000000008 C15.722,0.58300000000008 16.277,1.41499999999996 16.277,1.41499999999996 C16.277,1.41499999999996 1.27699999999999,11.415 1.27699999999999,11.415 M16.429,20.9989999999998 C16.429,20.9989999999998 17,20.1550000000002 17,20.1550000000002 C17,20.1550000000002 1.56999999999999,9.9989999999998 1.56999999999999,9.9989999999998 C1.56999999999999,9.9989999999998 1,10.8440000000001 1,10.8440000000001 C1,10.8440000000001 16.429,20.9989999999998 16.429,20.9989999999998  "/>
</svg>
