<?xml version="1.0" encoding="utf-8"?>
<!DOCTYPE svg PUBLIC "-//W3C//DTD SVG 1.1//EN" "http://www.w3.org/Graphics/SVG/1.1/DTD/svg11.dtd">
<svg version="1.1" baseProfile="full"
 xmlns="http://www.w3.org/2000/svg"
 xmlns:xlink="http://www.w3.org/1999/xlink"
 xmlns:ev="http://www.w3.org/2001/xml-events"
  height="23px"
  width="39px"
>
<path id="menu" fill="rgb( 232, 194, 154 )"
 d="M0,2 C0,2 0,0.999 0,0.999 C0,0.999 39,0.999 39,0.999 C39,0.999 39,2 39,2 C39,2 0,2 0,2 M0,12 C0,12 0,10.999 0,10.999 C0,10.999 39,10.999 39,10.999 C39,10.999 39,12 39,12 C39,12 0,12 0,12 M0,22 C0,22 0,20.999 0,20.999 C0,20.999 39,20.999 39,20.999 C39,20.999 39,22 39,22 C39,22 0,22 0,22 M0,3 C0,3 0,2 0,2 C0,2 39,2 39,2 C39,2 39,3 39,3 C39,3 0,3 0,3 M0,12.999 C0,12.999 0,12 0,12 C0,12 39,12 39,12 C39,12 39,12.999 39,12.999 C39,12.999 0,12.999 0,12.999 M0,22.999 C0,22.999 0,22 0,22 C0,22 39,22 39,22 C39,22 39,22.999 39,22.999 C39,22.999 0,22.999 0,22.999  "/>
</svg>
